<svg width="288" height="682" viewBox="0 0 288 682" fill="none" xmlns="http://www.w3.org/2000/svg">
<path d="M192.934 519.723C195.615 519.619 199.547 522.898 201.177 524.55C202.461 520.741 205.342 516.556 206.622 514.94C216.731 503.269 217.285 491.775 216.298 487.487C214.961 480.736 221.07 472.085 224.292 468.604C222.487 459.007 213.315 454.857 208.955 453.982L206.644 457.876C202.089 465.035 202.447 470.794 203.195 472.779C200.089 475.764 200.614 479.295 201.264 480.687C203.92 484.522 202.494 489.291 201.449 491.197C196.069 500.178 195.143 505.539 195.353 507.098C196.056 511.367 193.25 517.408 191.759 519.894C192.132 519.8 192.524 519.739 192.934 519.723Z" fill="#C4A094"/>
<path d="M194.431 408.449L188.661 398.155C186.875 394.42 184.609 386.005 189.833 382.222C188.129 382.045 186.164 381.114 184.691 380.244C182.283 382.331 177.398 389.328 177.12 400.617L178.097 414.23C178.447 417.498 179.01 425.07 178.454 429.209L188.27 434.198C189.044 428.041 191.276 414.696 194.019 410.574C194.121 409.909 194.257 409.202 194.431 408.449Z" fill="#C4A094"/>
<path d="M206.644 457.876L208.955 453.982C213.315 454.857 222.487 459.007 224.292 468.604C227.679 465.563 234.997 457.312 237.167 448.635C238.989 449.46 242.258 449.512 240.757 443.125L243.935 438.526C246.209 437.543 250.408 434.65 249.011 430.945C249.754 430.576 250.75 429.887 251.721 428.878C241.664 414.999 230.051 403.709 229.346 402.841C228.782 402.147 222.199 393.571 218.977 389.37C218.287 388.874 216.632 387.76 215.539 387.266L210.202 388.144L202.393 381.867C202.238 381.996 202.075 382.108 201.916 382.2C196.258 384.031 191.503 382.977 189.833 382.222C184.609 386.005 186.875 394.42 188.661 398.155L194.431 408.449C194.257 409.202 194.121 409.909 194.019 410.574C193.04 416.928 195.139 419.361 196.438 419.783C201.801 419.575 209.273 423.76 212.339 425.879C210.855 429.159 213.912 433.725 215.625 435.598C215.296 436.729 214.556 439.175 214.226 439.904C210.686 440.936 209.287 447.182 209.031 450.175C203.772 453.065 205.249 456.513 206.644 457.876Z" fill="#1B222C"/>
<path d="M255.074 419.968L237.33 400.965C234.593 397.714 230.754 389.539 237.297 382.84L244.402 375.627C243.888 373.932 244.441 369.718 250.758 366.43C249.127 364.777 246.849 360.271 250.779 355.464C250.473 354.728 250.202 353.845 250.069 352.947C247.018 351.567 237.181 350.044 232.644 349.455C232.151 349.305 231.663 349.17 231.181 349.049C222.984 346.998 216.45 349.039 214.107 350.398C214.089 350.676 214.089 350.969 214.105 351.274C214.267 354.379 216.094 358.734 217.317 361.18C217.448 361.441 217.572 361.681 217.687 361.896C225.167 360.889 225.916 366.35 225.355 369.206C223.672 371.957 225.688 377.771 226.906 380.335C222.524 382.743 219.183 388.914 218.977 389.37C222.199 393.571 228.782 402.147 229.346 402.841C230.051 403.709 241.664 414.999 251.721 428.878C253.521 427.006 255.232 424.033 255.074 419.968Z" fill="#0061C4"/>
<path d="M214.105 351.274C211.293 351.539 204.32 351.897 198.922 351.212C195.679 350.293 187 348.452 178.227 348.435L160.103 348.467C158.786 349.697 157.187 352.165 159.391 353.68C159.837 353.987 160.439 354.255 161.231 354.465L179.822 360.68C181.933 361.27 187.761 362.297 194.182 361.689C194.638 361.895 206.735 364.845 217.317 361.18C216.094 358.734 214.267 354.379 214.105 351.274Z" fill="#C4A094"/>
<path d="M250.069 352.947C249.63 349.996 250.672 346.884 256.767 348.294C257.775 348.025 259.45 347.759 261.399 347.76C259.334 341.649 250.241 340.479 245.953 340.658C239.462 339.478 234.376 346.031 232.644 349.455C237.181 350.044 247.018 351.567 250.069 352.947Z" fill="#C4A094"/>
<path d="M237.33 400.965L255.074 419.968C265.175 421.903 273.123 416.06 275.835 412.896C282.143 404.774 283.539 394.248 283.449 389.999C286.156 385.956 285.698 382.602 285.13 381.431C282.805 376.866 284.038 372.522 284.946 370.92C288.677 365.584 286.24 361.994 284.556 360.866C282.369 359.876 280.08 357.011 279.208 355.703C275.52 348.327 271.099 348.558 269.349 349.596C267.33 348.489 265.088 347.987 263.016 347.823C262.463 347.78 261.921 347.76 261.399 347.76C259.45 347.759 257.775 348.025 256.767 348.294C250.672 346.884 249.63 349.996 250.069 352.947C250.202 353.845 250.473 354.728 250.779 355.464C246.849 360.271 249.127 364.777 250.758 366.43C244.441 369.718 243.888 373.932 244.402 375.627L237.297 382.84C230.754 389.539 234.593 397.714 237.33 400.965Z" fill="#CB3E2A"/>
<path d="M232.644 349.455C234.376 346.031 239.462 339.478 245.953 340.658C250.241 340.479 259.334 341.649 261.399 347.76C261.921 347.76 262.463 347.78 263.016 347.823C263.63 344.444 263.442 336.936 257.776 333.934C254.724 332.187 247.15 330.005 241.267 335.246C239.178 337.033 234.237 342.295 231.181 349.049C231.663 349.17 232.151 349.305 232.644 349.455Z" fill="#366E89"/>
<path d="M189.833 382.222C191.503 382.977 196.258 384.031 201.916 382.2C202.075 382.108 202.238 381.996 202.393 381.867C203.096 381.285 203.631 380.358 202.864 379.336C202.484 378.829 201.783 378.299 200.625 377.775C196.608 376.14 187.342 373.412 182.414 375.573C182.235 375.64 182.046 375.743 181.88 375.88C181.393 376.284 181.108 376.991 181.861 378.007C182.114 378.347 182.483 378.721 182.999 379.13C183.397 379.428 183.988 379.829 184.691 380.244C186.164 381.114 188.129 382.045 189.833 382.222Z" fill="#857D4C"/>
<path d="M138.688 357.438C139.569 360.149 140.293 362.576 140.806 364.433C155.887 374.768 174.46 377.788 181.861 378.007C181.108 376.991 181.393 376.284 181.88 375.88C172.011 374.429 149.556 368.71 138.688 357.438Z" fill="#1B222C"/>
<path d="M282.306 931.132C278.445 908.532 267.28 858.81 253.51 840.726C260.137 821.224 268.712 775.823 249.996 750.234C240.205 720.926 218.164 656.589 208.324 633.699L215.559 606.788C216.738 602.565 217.527 591.764 211.253 582.34L192.522 543.683L192.429 543.535C192.356 543.416 192.281 543.295 192.205 543.171C190.105 539.749 187.101 534.301 184.9 528.99C183.016 524.444 181.721 519.998 182.087 517.011L178.053 505.308C176.534 496.938 172.842 479.463 170.222 476.521C166.946 472.844 175.298 468.94 166.783 451.368C165.413 448.656 163.682 444.665 162.372 440.497C161.926 439.079 161.529 437.641 161.212 436.226C160.755 434.188 160.462 432.197 160.426 430.382C160.374 427.767 160.854 425.519 162.141 424.024C163.078 423.167 164.046 420.056 160.427 414.468L148.269 395.248L149.375 389.163C146.508 382.561 140.78 368.372 140.806 364.433C140.293 362.576 139.569 360.149 138.688 357.438C138.349 356.397 137.988 355.314 137.606 354.205C135.506 348.105 132.795 341.22 129.969 336.227C129.222 334.909 128.468 333.723 127.715 332.718L116.597 317.261C116.113 316.31 115.805 314.159 118.452 313.161L126.001 323.162L138.106 335.223C139.82 337.096 145.18 338.753 152.911 330.397C154.687 328.09 158.144 322.227 157.771 317.229C160.103 317.735 165.127 316.496 166.567 307.489C168.744 305.913 173.845 300.135 176.839 289.636C177.664 287.814 180.371 283.77 184.605 282.173C186.312 280.019 189.944 273.284 190.821 263.583C196.121 257.932 204.908 241.419 197.654 220.576C198.974 218.063 200.709 211.641 197.09 206.053C197.596 203.721 197.357 197.942 192.35 193.481C190.774 191.305 188.422 185.668 191.624 180.531L189.411 169.652C190.452 165.732 192.11 156.165 190.409 149.249C191.179 147.951 192.42 144.561 191.223 141.386C193.67 137.188 197.31 125.261 192.286 111.135L194.347 106.579C197.065 105.719 202.4 100.9 202 88.5C199.5 87.5 194.7 83.9999 195.5 78C199.5 77.9999 206.7 75.4999 203.5 65.4999C206 63.6666 210.1 58 206.5 50C201.667 42.6666 189.5 28 179.5 28L8.0257 22.2895L-178.295 -62L-473 589.44L282.306 931.132Z" fill="#FFE037"/>
<path d="M192.522 543.683L211.253 582.34C217.527 591.764 216.738 602.565 215.559 606.788L208.324 633.699C218.164 656.589 240.205 720.926 249.996 750.234C268.712 775.823 260.137 821.224 253.51 840.726C267.28 858.81 278.445 908.532 282.306 931.132L-473 589.44L-178.295 -62L8.0257 22.2895L179.5 28C189.5 28 201.667 42.6666 206.5 50C210.1 58 206 63.6666 203.5 65.4999C206.7 75.4999 199.5 77.9999 195.5 78C194.7 83.9999 199.5 87.5 202 88.5C202.4 100.9 197.065 105.719 194.347 106.579L192.286 111.135C197.31 125.261 193.67 137.188 191.223 141.386C192.42 144.561 191.179 147.951 190.409 149.249C192.11 156.165 190.452 165.732 189.411 169.652L191.624 180.531C188.422 185.668 190.774 191.305 192.35 193.481C197.357 197.942 197.596 203.721 197.09 206.053C200.709 211.641 198.974 218.063 197.654 220.576C204.908 241.419 196.121 257.932 190.821 263.583C189.944 273.284 186.312 280.019 184.605 282.173C180.371 283.77 177.664 287.814 176.839 289.636C173.845 300.135 168.744 305.913 166.567 307.489C165.127 316.496 160.103 317.735 157.771 317.229C158.144 322.227 154.687 328.09 152.911 330.397C145.18 338.753 139.82 337.096 138.106 335.223L126.001 323.162L118.452 313.161C115.805 314.159 116.113 316.31 116.597 317.261L127.715 332.718C128.468 333.723 129.222 334.909 129.969 336.227M192.522 543.683L192.429 543.535M192.522 543.683C192.491 543.634 192.46 543.585 192.429 543.535M140.806 364.433C140.78 368.372 146.508 382.561 149.375 389.163L148.269 395.248L160.427 414.468C164.046 420.056 163.078 423.167 162.141 424.024C160.854 425.519 160.374 427.767 160.426 430.382M140.806 364.433C140.293 362.576 139.569 360.149 138.688 357.438M140.806 364.433C155.887 374.768 174.46 377.788 181.861 378.007M184.9 528.99C183.016 524.444 181.721 519.998 182.087 517.011L178.053 505.308C176.534 496.938 172.842 479.463 170.222 476.521C166.946 472.844 175.298 468.94 166.783 451.368C165.413 448.656 163.682 444.665 162.372 440.497M184.9 528.99L187.684 522.836C188.22 521.994 189.691 520.419 191.759 519.894M184.9 528.99C187.101 534.301 190.105 539.749 192.205 543.171M201.177 524.55C199.547 522.898 195.615 519.619 192.934 519.723C192.524 519.739 192.132 519.8 191.759 519.894M201.177 524.55L199.908 532.207C199.661 534.776 197.773 540.566 192.205 543.171M201.177 524.55C202.461 520.741 205.342 516.556 206.622 514.94C216.731 503.269 217.285 491.775 216.298 487.487C214.961 480.737 221.07 472.085 224.292 468.604M192.205 543.171C192.281 543.295 192.356 543.416 192.429 543.535M191.759 519.894C193.25 517.408 196.056 511.367 195.353 507.098C195.143 505.539 196.069 500.178 201.449 491.197C202.494 489.291 203.92 484.522 201.264 480.687C200.614 479.295 200.089 475.764 203.195 472.779C202.447 470.794 202.089 465.035 206.644 457.876M206.644 457.876L208.955 453.982C213.315 454.857 222.487 459.007 224.292 468.604M206.644 457.876C205.249 456.513 203.772 453.065 209.031 450.175C209.287 447.182 210.686 440.936 214.226 439.904C214.556 439.175 215.296 436.729 215.625 435.598C213.912 433.725 210.855 429.159 212.339 425.879C209.273 423.76 201.801 419.575 196.438 419.783C195.139 419.361 193.04 416.928 194.019 410.574M224.292 468.604C227.679 465.563 234.997 457.312 237.167 448.635C238.989 449.46 242.258 449.512 240.757 443.125L243.935 438.526C246.209 437.543 250.408 434.65 249.011 430.945C249.754 430.576 250.75 429.887 251.721 428.878M189.833 382.222C184.609 386.005 186.875 394.42 188.661 398.155L194.431 408.449C194.257 409.202 194.121 409.909 194.019 410.574M189.833 382.222C191.503 382.977 196.258 384.031 201.916 382.2C202.075 382.108 202.238 381.996 202.393 381.867M189.833 382.222C188.129 382.045 186.164 381.114 184.691 380.244M202.864 379.336C202.484 378.829 201.783 378.299 200.625 377.775C196.608 376.14 187.342 373.412 182.414 375.573C182.235 375.64 182.046 375.743 181.88 375.88M202.864 379.336L207.534 377.059L215.539 387.266M202.864 379.336C203.631 380.359 203.096 381.285 202.393 381.867M215.539 387.266L210.202 388.144L202.393 381.867M215.539 387.266C216.632 387.76 218.287 388.874 218.977 389.37M184.691 380.244C183.988 379.829 183.397 379.428 182.999 379.13C182.483 378.721 182.114 378.347 181.861 378.007M184.691 380.244C182.283 382.331 177.398 389.328 177.12 400.617L178.097 414.23C178.447 417.498 179.01 425.07 178.454 429.209M178.454 429.209L188.27 434.198M178.454 429.209L178.031 430.664M188.27 434.198C189.044 428.041 191.276 414.696 194.019 410.574M188.27 434.198L185.635 441.238M185.635 441.238C182.048 441.079 175.393 439.129 177.467 432.604L178.031 430.664M185.635 441.238C186.513 443.241 186.541 448.2 179.884 452.356M178.031 430.664C174.762 431.746 166.664 433.204 160.426 430.382M160.426 430.382C160.462 432.197 160.755 434.188 161.212 436.226M162.372 440.497L178.085 454.286L179.365 452.67C179.543 452.566 179.715 452.461 179.884 452.356M162.372 440.497C161.926 439.079 161.529 437.641 161.212 436.226M161.212 436.226C161.808 436.495 173.908 447.091 179.884 452.356M255.074 419.968L237.33 400.965C234.593 397.714 230.754 389.539 237.297 382.84L244.402 375.627C243.888 373.932 244.441 369.718 250.758 366.43C249.127 364.777 246.849 360.271 250.779 355.464C250.473 354.728 250.202 353.845 250.069 352.947M255.074 419.968C265.175 421.903 273.123 416.06 275.835 412.896C282.143 404.774 283.539 394.248 283.449 389.999C286.156 385.956 285.698 382.602 285.13 381.431C282.805 376.866 284.038 372.522 284.946 370.92C288.677 365.584 286.24 361.994 284.556 360.866C282.369 359.876 280.08 357.011 279.208 355.703C275.52 348.327 271.099 348.558 269.349 349.596C267.33 348.489 265.088 347.987 263.016 347.823M255.074 419.968C255.232 424.033 253.521 427.006 251.721 428.878M218.977 389.37C222.199 393.571 228.782 402.147 229.346 402.841C230.051 403.709 241.664 414.999 251.721 428.878M218.977 389.37C219.183 388.914 222.524 382.743 226.906 380.335C225.688 377.771 223.672 371.957 225.355 369.206C225.916 366.35 225.166 360.889 217.687 361.896C217.572 361.681 217.448 361.441 217.317 361.18M232.644 349.455C237.181 350.044 247.018 351.567 250.069 352.947M232.644 349.455C234.376 346.031 239.462 339.478 245.953 340.658C250.241 340.479 259.334 341.649 261.399 347.76M232.644 349.455C232.151 349.305 231.663 349.17 231.181 349.049M250.069 352.947C249.63 349.996 250.672 346.884 256.767 348.294C257.775 348.025 259.45 347.759 261.399 347.76M214.105 351.274C214.089 350.969 214.089 350.676 214.107 350.398C216.45 349.039 222.984 346.998 231.181 349.049M214.105 351.274C211.293 351.539 204.32 351.897 198.922 351.212C195.679 350.293 187 348.452 178.227 348.435L160.103 348.467M214.105 351.274C214.267 354.379 216.094 358.734 217.317 361.18M160.103 348.467L153.812 347.816C152.009 346.773 148.67 345.53 145.37 345.855M160.103 348.467C158.786 349.697 157.187 352.165 159.391 353.68M217.317 361.18C206.735 364.845 194.638 361.895 194.182 361.689C187.761 362.297 181.933 361.27 179.822 360.68L161.231 354.465C160.439 354.255 159.837 353.987 159.391 353.68M159.391 353.68C157.03 355.016 154.117 354.825 152.955 354.563L146.165 352.589C145.633 352.466 145.143 352.339 144.69 352.209M129.969 336.227C134.411 337.731 143.709 341.761 145.37 345.855M129.969 336.227C132.795 341.22 135.506 348.105 137.606 354.205M145.37 345.855C143.362 346.053 141.368 346.83 139.744 348.586C139.431 349.278 140.069 350.885 144.69 352.209M144.69 352.209C143.2 353.268 139.696 355.15 137.606 354.205M137.606 354.205C137.988 355.314 138.349 356.397 138.688 357.438M261.399 347.76C261.921 347.76 262.463 347.78 263.016 347.823M263.016 347.823C263.63 344.444 263.442 336.936 257.776 333.934C254.724 332.187 247.15 330.005 241.267 335.246C239.178 337.033 234.237 342.295 231.181 349.049M181.88 375.88C172.011 374.43 149.556 368.71 138.688 357.438M181.88 375.88C181.393 376.284 181.108 376.991 181.861 378.007" stroke="black" stroke-width="2"/>
</svg>
