<svg width="502" height="749" viewBox="0 0 502 749" fill="none" xmlns="http://www.w3.org/2000/svg">
<path d="M204 32.0565C197.167 36.5565 182 44.0565 176 38.0565C165.5 43.0565 146.9 61.0565 156.5 93.0565C157.08 95.0278 157.873 98.1569 158.679 102.056C158.938 103.314 159.199 104.652 159.455 106.056C160.684 112.818 161.784 121.134 162 129.556C162.167 135.39 165 148.056 176.5 164.556C179 168.556 185.8 177.556 193 181.556C195.333 183.056 201.5 187.556 207.5 193.556C208.884 194.743 210.952 196.071 213.5 197.1C216.333 204.086 220.7 219.157 215.5 223.557L210.5 229.057C207.333 224.057 198.4 216.457 188 226.057C186.333 224.057 182.3 222.157 179.5 230.557C181.667 235.557 185.5 250.156 183.5 268.556C183.433 269.457 183.265 270.645 182.969 272.057C182.357 274.965 181.201 278.82 179.26 283.057C177.434 287.044 174.913 291.368 171.5 295.556C167.333 301.723 156.6 315.356 147 320.556L111.5 318.056C108.167 317.723 102 319.056 101 327.056L94.2163 385.056C89.6442 374.723 80.2 351.456 79 341.056C75.0655 341.857 70.1257 343.323 64.6193 345.557C56.5853 348.815 47.3449 353.709 38.2603 360.557C23.7667 371.482 9.66956 387.382 1.49997 409.556C2.99997 399.89 12.8 374.656 40 351.056C44.1666 347.223 53.4 336.856 57 326.056C59 320.056 65.2 304.756 74 291.556C78 285.556 87.1 270.656 91.5 259.056C96 248.723 108.2 225.157 121 213.557C127.333 207.39 140.4 185.957 142 149.557L141 116.056L140 90.5565C138.333 73.0565 141.8 34.1565 169 18.5565L184 10.0565C187.667 5.88983 197.2 -1.0435 206 4.5565C218.5 -2.27683 252.5 -3.94347 288.5 44.0565C292.5 50.0565 301.8 66.7565 307 85.5565L318 124.557C323 138.057 333.1 169.657 333.5 188.057C333.5 192.39 335.6 204.457 344 218.057C347.333 223.89 355.6 238.257 362 249.057H341.5C335.833 248.89 323.3 250.557 318.5 258.557C318.188 258.695 317.854 258.829 317.5 258.956C313.866 260.255 308.152 260.777 302.5 257.921C298.134 255.715 293.805 251.493 290.5 244.057C286.333 233.557 278.6 205.557 281 177.557C281.667 169.723 282.1 153.056 278.5 149.057C279.833 141.223 279.8 119.056 269 93.0565C270.833 87.7231 271.6 75.5565 260 69.5565C256.5 68.5565 246.7 61.5565 235.5 41.5565C232.333 37.5565 221.6 30.0565 204 32.0565Z" fill="#131313"/>
<path d="M205.5 94.5565C214.333 89.183 235.4 80.2602 249 87.5565C246.5 83.8898 238.3 77.4565 225.5 81.0565L206 88.5565C202.4 89.9411 202.5 92.8001 203 94.0565L205.5 94.5565Z" fill="#131313"/>
<path d="M223.5 98.8743C223.667 101.435 225.5 106.056 231.5 104.056C233.333 103.303 236.7 100.773 235.5 96.6769C230.894 95.9645 226.84 97.0387 223.5 98.8743Z" fill="#131313"/>
<path d="M185.593 112.056C185.728 114.056 184.9 118.156 180.5 118.556C178.167 118.556 173.4 117.405 173 112.806C177.429 110.224 182.013 110.662 185.593 112.056Z" fill="#131313"/>
<path d="M175.5 95.5565C180.7 95.1565 184.395 98.3898 185.593 100.056C179.198 99.8067 165.018 100.657 159.455 106.056C159.199 104.652 158.938 103.314 158.679 102.056C161.222 97.6565 170.952 95.8898 175.5 95.5565Z" fill="#131313"/>
<path d="M207 260.057C207.667 261.557 209.2 263.557 210 259.557C210.5 255.557 210.6 246.157 207 240.557C206.5 239.89 205.4 238.957 205 240.557C204.333 244.057 203.8 252.857 207 260.057Z" fill="#131313"/>
<path d="M341.5 249.057H362C387.2 245.857 397.833 258.723 400 265.557C352.8 229.157 336.667 301.723 334.5 342.557L321 373.057C308.6 379.857 311.167 394.223 314 400.557L312.5 406.557L305.5 390.057L303 359.057L300.5 319.057C299.571 299.541 303.319 284.456 307.866 274.057C311.148 266.55 314.845 261.485 317.5 258.956C317.854 258.829 318.188 258.695 318.5 258.557C323.3 250.557 335.833 248.89 341.5 249.057Z" fill="#131313"/>
<path d="M410.5 382.057C412.5 363.223 416 320.257 414 299.057C416.667 305.557 421.9 323.357 421.5 342.557L419.5 365.557C419.333 368.557 417.3 376.057 410.5 382.057Z" fill="#131313"/>
<path fill-rule="evenodd" clip-rule="evenodd" d="M366 517.057C372.5 506.557 387.1 481.757 393.5 466.557C394.833 463.89 398.3 457.957 401.5 455.557C402.833 454.557 405.1 450.157 403.5 440.557L405 423.557L408.5 410.557L410.5 382.057C412.833 382.223 417.9 383.457 419.5 387.057C422.667 387.39 429.9 389.357 433.5 394.557L441 399.057C443 397.723 447.9 397.657 451.5 408.057C455 410.723 463 420.157 467 436.557C470.5 438.89 477.3 446.757 476.5 459.557C476 465.89 476.2 481.457 481 493.057V506.057C482.667 511.557 485.3 527.557 482.5 547.557C484.167 550.223 487 557.457 485 565.057L484 601.057L488.5 607.557L484 614.057L484.5 643.057C486 645.057 488.3 651.057 485.5 659.057C489 664.723 496 682.857 496 710.057C498.834 716.39 503.2 731.557 498 741.557V747.557H349C346.667 737.723 342.6 712.857 345 692.057L330.5 685.057L327.167 657.057L325.5 643.057C323.632 623.89 320.208 579.257 321.449 554.057C329.972 548.575 338.521 542.662 346 536.769C348 550.198 353.7 582.457 360.5 604.057L367.5 603.057C369.833 594.557 374.5 574.657 372.5 563.057C371.466 557.057 370.9 542.8 360.5 523.803C362.682 521.482 364.541 519.223 366 517.057ZM348.5 678.557C340.5 659.757 338.167 610.057 338 587.557L343 600.057C341.8 612.057 347.5 639.057 350.5 651.057C354.1 663.857 350.667 674.723 348.5 678.557Z" fill="#131313"/>
<path d="M38.2603 360.557C47.3449 353.709 56.5853 348.815 64.6193 345.557C49.7462 353.723 26.6 373.857 53 389.057C45.1736 387.89 31.2686 380.557 38.2603 360.557Z" fill="#131313"/>
<path d="M312.5 406.557L314 400.557C311.167 394.223 308.6 379.857 321 373.057L334.5 342.557C336.667 301.723 352.8 229.157 400 265.557C409.704 275.957 413.377 292.223 414 299.057C416 320.257 412.5 363.223 410.5 382.057L408.5 410.557L405 423.557L403.5 440.557C405.1 450.157 402.833 454.557 401.5 455.557C398.3 457.957 394.833 463.89 393.5 466.557C387.1 481.757 372.5 506.557 366 517.057C364.541 519.223 362.682 521.482 360.5 523.803C356.565 527.988 351.58 532.373 346 536.769C338.521 542.662 329.972 548.575 321.449 554.057C307.954 562.735 294.524 570.333 285.5 575.057C276.118 580.001 266.956 583.235 258.5 585.26C240.278 589.624 225.33 588.378 218.5 586.557C198.1 579.357 183 580.557 178 582.057C172.4 583.257 170.333 579.89 170 578.057C169.124 572.525 168.269 567.362 167.441 562.557C162.222 532.26 158.082 516.16 156.5 511.557C156.275 510.927 156.111 510.346 156 509.81C155.123 505.586 157.521 504.204 159 504.057L178 500.557C185.764 498.818 192.989 496.786 199.5 494.679C215.465 489.514 227.146 483.898 232 481.057C255.2 467.057 275 460.223 282 458.557C287.27 456.975 293.842 453.861 299 451.157C301.672 449.757 303.964 448.466 305.5 447.557C305.5 432.357 310.167 413.89 312.5 406.557Z" fill="#F5EEE8"/>
<path d="M94.2163 385.056L91 412.556C95.4 417.756 110.5 420.39 117.5 421.057C123 421.58 129.667 420.057 132.5 418.557C149.3 411.357 158.5 414.89 161 417.557C163.4 420.357 168 421.057 170 421.057H175.5C185.5 420.657 190.667 425.89 192 428.557C187 426.723 176.7 427.257 175.5 444.057C178.667 447.89 182.7 457.457 173.5 465.057C173.318 467.612 173.515 471.476 174.781 474.253C173.406 480.809 177.021 484.854 179 486.057C191 484.057 196.5 476.057 199.5 473.676C202 477.551 205.5 487.177 199.5 494.679C192.989 496.786 185.764 498.818 178 500.557L159 504.057C157.521 504.204 155.123 505.586 156 509.81C136.897 514.585 102.22 521.56 76 522.393C74.6429 522.436 73.3085 522.462 72 522.471C61.9753 522.54 53.4759 521.575 48 519.057C43.1667 518.39 32 513.657 26 500.057C24.6667 496.057 19.8 486.757 11 481.557C9 480.057 5.5 473.257 7.5 458.057C10.8402 434.39 21.6686 381.757 38.2603 360.557C31.2686 380.557 45.1736 387.89 53 389.057C26.6 373.857 49.7462 353.723 64.6193 345.557C70.1257 343.323 75.0655 341.857 79 341.056C80.2 351.456 89.6442 374.723 94.2163 385.056Z" fill="#F5EEE8"/>
<path d="M262.5 284.557L272 281.057C273.44 280.456 274.763 279.784 275.978 279.057C288.361 274.265 302.396 273.727 307.866 274.057C303.319 284.456 299.571 299.541 300.5 319.057L303 359.057L305.5 390.057L312.5 406.557C310.167 413.89 305.5 432.357 305.5 447.557C303.964 448.466 301.672 449.757 299 451.157C298.6 445.238 294.5 440.624 292.5 439.057C298.1 436.657 298.5 429.723 298 426.557C296.4 418.957 287.333 418.723 283 419.557C282.295 419.612 281.629 419.652 281 419.677L281.368 416.557C284.539 415.615 286.221 414.057 286.5 414.057C290.1 418.457 296.333 418.89 299 418.557C303.4 418.557 304.833 415.223 305 413.557C305 410.757 302 409.39 300.5 409.057C296.5 408.257 294.5 404.723 294 403.057C291.6 397.057 286 396.557 283.5 397.057L289 344.057C290.2 333.657 282.833 330.723 279 330.557L196.5 324.306C195.601 314.977 197.713 306.527 200.475 300.057C216.055 302.457 234.317 296.057 241.5 292.557L254 285.574C256.003 285.632 257.884 285.479 259.5 285.223C260.653 285.041 261.67 284.806 262.5 284.557Z" fill="#F5EEE8"/>
<path d="M196.5 324.306L160 321.541C164.8 307.929 170.667 299.546 173 297.057C176.545 293.568 179.216 289.776 181.205 286.057C186.569 294.857 196.287 299.057 200.475 300.057C197.713 306.527 195.601 314.977 196.5 324.306Z" fill="#F5EEE8"/>
<path d="M147 320.556C156.6 315.356 167.333 301.723 171.5 295.556C174.913 291.368 177.434 287.044 179.26 283.057L181.205 286.057C179.216 289.776 176.545 293.568 173 297.057C170.667 299.546 164.8 307.929 160 321.541L147 320.556Z" fill="#F5EEE8"/>
<path d="M182.969 272.057C183.205 273.663 183.998 274.974 185.175 276.038C184.351 279.104 183.081 282.549 181.205 286.057L179.26 283.057C181.201 278.82 182.357 274.965 182.969 272.057Z" fill="#131313"/>
<path d="M285.5 575.057C294.524 570.333 307.954 562.735 321.449 554.057C320.208 579.257 323.632 623.89 325.5 643.057L327.167 657.057C314.944 645.223 283.8 619.157 257 609.557L258.5 585.26C266.956 583.235 276.118 580.001 285.5 575.057Z" fill="#F5EEE8"/>
<path d="M360.5 604.057C353.7 582.457 348 550.198 346 536.769C351.58 532.373 356.565 527.988 360.5 523.803C370.9 542.8 371.466 557.057 372.5 563.057C374.5 574.657 369.833 594.557 367.5 603.057L360.5 604.057Z" fill="#F5EEE8"/>
<path d="M338 587.557C338.167 610.057 340.5 659.757 348.5 678.557C350.667 674.723 354.1 663.857 350.5 651.057C347.5 639.057 341.8 612.057 343 600.057L338 587.557Z" fill="#F5EEE8"/>
<path d="M46.5 628.057C38.5 606.457 48.1667 582.723 54 573.557C55.6 575.957 57.1711 574.557 57.7566 573.557C56.2283 578.179 55.3522 582.38 55 585.057C55 591.857 60.1429 593.557 62.7143 593.557L57 603.557C52.2 613.157 56.3333 616.223 59 616.557H66C69.9594 616.804 74.1933 615.916 77.5 614.887C75.5 618.61 71.3 629.557 70.5 643.557C67.6667 648.557 62.9 660.657 66.5 669.057C54.9 670.257 48.3333 642.223 46.5 628.057Z" fill="#F5EEE8"/>
<path d="M73.5 544.057L65 547.557C63.2509 548.14 60.425 550.354 59.2961 555.057C59.5775 549.457 62.2159 545.39 63.5 544.057C69.1 538.457 71.5 527.333 72 522.471C73.3085 522.462 74.6429 522.436 76 522.393L74 543.253C73.8059 543.514 73.6371 543.782 73.5 544.057Z" fill="#F5EEE8"/>
<path d="M180.5 477.557C185.035 476.023 191.945 474.355 199.5 473.676C196.5 476.057 191 484.057 179 486.057C177.021 484.854 173.406 480.809 174.781 474.253C175.828 476.547 177.604 478.099 180.5 477.557Z" fill="#131313"/>
<path d="M345 692.057C342.6 712.857 346.667 737.723 349 747.557H48C50 730.357 53.8333 720.057 55.5 717.057C53.5 711.457 56.3333 707.057 58 705.557C54.8 694.757 59.3333 688.723 62 687.057C60.8 680.657 65.1667 674.39 67.5 672.057L66.5 669.057C62.9 660.657 67.6667 648.557 70.5 643.557C71.3 629.557 75.5 618.61 77.5 614.887C79.5383 614.253 81.2242 613.565 82.2763 613.057L82.5 621.557C88.1 631.957 95.5 626.693 98.5 622.761C100.886 625.761 104.897 625.345 107 624.557L113.5 621.557C118.3 620.357 118.167 616.39 117.5 614.557L164.5 618.557L241 627.057C251.8 628.257 255.5 620.89 256 617.057L257 609.557C283.8 619.157 314.944 645.223 327.167 657.057L330.5 685.057L345 692.057Z" fill="#023967"/>
<path d="M170 578.057C170.333 579.89 172.4 583.257 178 582.057C183 580.557 198.1 579.357 218.5 586.557C225.33 588.378 240.278 589.624 258.5 585.26L257 609.557L256 617.057C255.5 620.89 251.8 628.257 241 627.057L164.5 618.557L117.5 614.557C111.1 614.557 113.833 606.89 116 603.057C125.2 596.257 130.5 580.223 132 573.057C134.4 563.857 142.667 562.223 146.5 562.557H167.441C168.269 567.362 169.124 572.525 170 578.057Z" fill="#676674"/>
<path d="M199.5 473.676C210.826 472.657 223.602 473.858 232 481.057C227.146 483.898 215.465 489.514 199.5 494.679C205.5 487.177 202 477.551 199.5 473.676Z" fill="#676674"/>
<path d="M156 509.81C156.111 510.346 156.275 510.927 156.5 511.557L123.5 518.557C120.167 519.223 112.4 521.957 108 527.557C106.333 527.557 102.2 528.157 99 530.557L80 539.057C78.5237 539.647 75.5045 541.231 74 543.253L76 522.393C102.22 521.56 136.897 514.585 156 509.81Z" fill="#676674"/>
<path d="M111.5 318.056L147 320.556L160 321.541L196.5 324.306L279 330.557C282.833 330.723 290.2 333.657 289 344.057L283.5 397.057L261 401.057C259.5 401.223 255.7 402.357 252.5 405.557L237 417.057L225.5 426.057C224.667 426.723 222.1 427.957 218.5 427.557L192 428.557C190.667 425.89 185.5 420.657 175.5 421.057H170C168 421.057 163.4 420.357 161 417.557C158.5 414.89 149.3 411.357 132.5 418.557C129.667 420.057 123 421.58 117.5 421.057C110.5 420.39 95.4 417.756 91 412.556L94.2163 385.056L101 327.056C102 319.056 108.167 317.723 111.5 318.056Z" fill="#676674"/>
<path d="M271 416.557C275.417 417.661 278.859 417.302 281.368 416.557L281 419.677C272.536 420.021 270.771 417.798 271 416.557Z" fill="#676674"/>
<path d="M290.5 244.057C293.805 251.493 298.134 255.715 302.5 257.921L293.5 261.557L289.5 260.557C288.033 265.396 284.889 273.721 275.978 279.057C274.763 279.784 273.44 280.456 272 281.057L262.5 284.557C261.67 284.806 260.653 285.041 259.5 285.223C257.884 285.479 256.003 285.632 254 285.574C248.822 285.423 242.83 283.867 238.5 279.057C237.532 277.736 236.489 275.802 235.67 273.391C233.389 266.671 232.846 256.243 240.5 245.057C244.667 238.557 256.2 226.157 269 228.557C272.833 229.39 282 233.857 288 245.057L290.5 244.057Z" fill="#F9FAFC"/>
<path fill-rule="evenodd" clip-rule="evenodd" d="M188 226.057C198.4 216.457 207.333 224.057 210.5 229.057C212.167 232.057 215.5 240.657 215.5 251.057V263.057C215.667 268.057 214.1 278.457 206.5 280.057C200.623 280.589 189.861 280.271 185.175 276.038C183.998 274.974 183.205 273.663 182.969 272.057C183.265 270.645 183.433 269.457 183.5 268.556C185.5 250.156 181.667 235.557 179.5 230.557C182.3 222.157 186.333 224.057 188 226.057ZM210 259.557C209.2 263.557 207.667 261.557 207 260.057C203.8 252.857 204.333 244.057 205 240.557C205.4 238.957 206.5 239.89 207 240.557C210.6 246.157 210.5 255.557 210 259.557Z" fill="#F9FAFC"/>
<path d="M237 193.556C249 186.556 274.1 167.857 278.5 149.057C282.1 153.056 281.667 169.723 281 177.557C278.6 205.557 286.333 233.557 290.5 244.057L288 245.057C282 233.857 272.833 229.39 269 228.557C256.2 226.157 244.667 238.557 240.5 245.057C232.846 256.243 233.389 266.671 235.67 273.391C228.634 274.858 217.299 278.436 207 289.057C205.175 291.173 202.627 295.014 200.475 300.057C196.287 299.057 186.569 294.857 181.205 286.057C183.081 282.549 184.351 279.104 185.175 276.038C189.861 280.271 200.623 280.589 206.5 280.057C214.1 278.457 215.667 268.057 215.5 263.057V251.057C215.5 240.657 212.167 232.057 210.5 229.057L215.5 223.557C220.7 219.157 216.333 204.086 213.5 197.1C219.541 199.541 228.278 200.309 237 193.556Z" fill="#FDCAAB"/>
<path d="M238.5 279.057C242.83 283.867 248.822 285.423 254 285.574L241.5 292.557C234.317 296.057 216.055 302.457 200.475 300.057C202.627 295.014 205.175 291.173 207 289.057C217.299 278.436 228.634 274.858 235.67 273.391C236.489 275.802 237.532 277.736 238.5 279.057Z" fill="#FDCAAB"/>
<path d="M293.5 261.557L302.5 257.921C308.152 260.777 313.866 260.255 317.5 258.956C314.845 261.485 311.148 266.55 307.866 274.057C302.396 273.727 288.361 274.265 275.978 279.057C284.889 273.721 288.033 265.396 289.5 260.557L293.5 261.557Z" fill="#FDCAAB"/>
<path d="M261 401.057L283.5 397.057C286 396.557 291.6 397.057 294 403.057C294.5 404.723 296.5 408.257 300.5 409.057C302 409.39 305 410.757 305 413.557C304.833 415.223 303.4 418.557 299 418.557C296.333 418.89 290.1 418.457 286.5 414.057C286.221 414.057 284.539 415.615 281.368 416.557C278.859 417.302 275.417 417.661 271 416.557C270.771 417.798 272.536 420.021 281 419.677C281.629 419.652 282.295 419.612 283 419.557C287.333 418.723 296.4 418.957 298 426.557C298.5 429.723 298.1 436.657 292.5 439.057C294.5 440.624 298.6 445.238 299 451.157C293.842 453.861 287.27 456.975 282 458.557C275 460.223 255.2 467.057 232 481.057C223.602 473.858 210.826 472.657 199.5 473.676C191.945 474.355 185.035 476.023 180.5 477.557C177.604 478.099 175.828 476.547 174.781 474.253C173.515 471.476 173.318 467.612 173.5 465.057C182.7 457.457 178.667 447.89 175.5 444.057C176.7 427.257 187 426.723 192 428.557L218.5 427.557C222.1 427.957 224.667 426.723 225.5 426.057L237 417.057L252.5 405.557C255.7 402.357 259.5 401.223 261 401.057Z" fill="#FDCAAB"/>
<path d="M123.5 518.557L156.5 511.557C158.082 516.16 162.222 532.26 167.441 562.557H146.5C142.667 562.223 134.4 563.857 132 573.057C130.5 580.223 125.2 596.257 116 603.057C113.833 606.89 111.1 614.557 117.5 614.557C118.167 616.39 118.3 620.357 113.5 621.557L107 624.557C104.897 625.345 100.886 625.761 98.5 622.761C95.5 626.693 88.1 631.957 82.5 621.557L82.2763 613.057L82.2105 610.557L82 602.557C81.1667 599.89 78.5 596.557 74.5 604.557L71.75 608.807L82.2105 610.557L82.2763 613.057C81.2242 613.565 79.5383 614.253 77.5 614.887C74.1933 615.916 69.9594 616.804 66 616.557H59C56.3333 616.223 52.2 613.157 57 603.557L62.7143 593.557C60.1429 593.557 55 591.857 55 585.057C55.3522 582.38 56.2283 578.179 57.7566 573.557C57.1711 574.557 55.6 575.957 54 573.557C53.6 567.957 57.1667 563.89 59 562.557C58.6396 559.553 58.8114 557.075 59.2961 555.057C60.425 550.354 63.2509 548.14 65 547.557L73.5 544.057C73.6371 543.782 73.8059 543.514 74 543.253C75.5045 541.231 78.5237 539.647 80 539.057L99 530.557C102.2 528.157 106.333 527.557 108 527.557C112.4 521.957 120.167 519.223 123.5 518.557Z" fill="#FDCAAB"/>
<path d="M74.5 604.557C78.5 596.557 81.1667 599.89 82 602.557L82.2105 610.557L71.75 608.807L74.5 604.557Z" fill="#676674"/>
<path fill-rule="evenodd" clip-rule="evenodd" d="M176 38.0565C182 44.0565 197.167 36.5565 204 32.0565C221.6 30.0565 232.333 37.5565 235.5 41.5565C246.7 61.5565 256.5 68.5565 260 69.5565C271.6 75.5565 270.833 87.7231 269 93.0565C279.8 119.056 279.833 141.223 278.5 149.057C274.1 167.857 249 186.556 237 193.556C228.278 200.309 219.541 199.541 213.5 197.1C210.952 196.071 208.884 194.743 207.5 193.556C201.5 187.556 195.333 183.056 193 181.556C185.8 177.556 179 168.556 176.5 164.556C165 148.056 162.167 135.39 162 129.556C161.784 121.134 160.684 112.818 159.455 106.056C165.018 100.657 179.198 99.8067 185.593 100.056C184.395 98.3898 180.7 95.1565 175.5 95.5565C170.952 95.8898 161.222 97.6565 158.679 102.056C157.873 98.1569 157.08 95.0278 156.5 93.0565C146.9 61.0565 165.5 43.0565 176 38.0565ZM231.5 104.056C225.5 106.056 223.667 101.435 223.5 98.8743C226.84 97.0387 230.894 95.9645 235.5 96.6769C236.7 100.773 233.333 103.303 231.5 104.056ZM180.5 118.556C184.9 118.156 185.728 114.056 185.593 112.056C182.013 110.662 177.429 110.224 173 112.806C173.4 117.405 178.167 118.556 180.5 118.556ZM249 87.5565C235.4 80.2602 214.333 89.183 205.5 94.5565L203 94.0565C202.5 92.8001 202.4 89.9411 206 88.5565L225.5 81.0565C238.3 77.4565 246.5 83.8898 249 87.5565Z" fill="#FDCAAB"/>
<path d="M278.5 149.057C274.1 167.857 249 186.556 237 193.556C228.278 200.309 219.541 199.541 213.5 197.1M278.5 149.057C279.833 141.223 279.8 119.056 269 93.0565C270.833 87.7231 271.6 75.5565 260 69.5565C256.5 68.5565 246.7 61.5565 235.5 41.5565C232.333 37.5565 221.6 30.0565 204 32.0565C197.167 36.5565 182 44.0565 176 38.0565C165.5 43.0565 146.9 61.0565 156.5 93.0565C157.08 95.0278 157.873 98.1569 158.679 102.056M278.5 149.057C282.1 153.056 281.667 169.723 281 177.557C278.6 205.557 286.333 233.557 290.5 244.057M214.5 107.556C216.088 104.857 219.203 101.236 223.5 98.8743M241.5 98.5565C239.413 97.5743 237.409 96.9721 235.5 96.6769M190 114.556C188.863 113.655 187.349 112.741 185.593 112.056M165.5 121.056C167.783 116.948 170.364 114.342 173 112.806M223.5 98.8743C223.667 101.435 225.5 106.056 231.5 104.056C233.333 103.303 236.7 100.773 235.5 96.6769M223.5 98.8743C226.84 97.0387 230.894 95.9645 235.5 96.6769M185.593 112.056C185.728 114.056 184.9 118.156 180.5 118.556C178.167 118.556 173.4 117.405 173 112.806M185.593 112.056C182.013 110.662 177.429 110.224 173 112.806M158.679 102.056C161.222 97.6565 170.952 95.8898 175.5 95.5565C180.7 95.1565 184.395 98.3898 185.593 100.056C179.198 99.8067 165.018 100.657 159.455 106.056M158.679 102.056C158.938 103.314 159.199 104.652 159.455 106.056M159.455 106.056C160.684 112.818 161.784 121.134 162 129.556C162.167 135.39 165 148.056 176.5 164.556C179 168.556 185.8 177.556 193 181.556C195.333 183.056 201.5 187.556 207.5 193.556C208.884 194.743 210.952 196.071 213.5 197.1M213.5 197.1C216.333 204.086 220.7 219.157 215.5 223.557L210.5 229.057M210.5 229.057C207.333 224.057 198.4 216.457 188 226.057C186.333 224.057 182.3 222.157 179.5 230.557C181.667 235.557 185.5 250.156 183.5 268.556C183.433 269.457 183.265 270.645 182.969 272.057M210.5 229.057C212.167 232.057 215.5 240.657 215.5 251.057V263.057C215.667 268.057 214.1 278.457 206.5 280.057C200.623 280.589 189.861 280.271 185.175 276.038M147 320.556C156.6 315.356 167.333 301.723 171.5 295.556C174.913 291.368 177.434 287.044 179.26 283.057M147 320.556L111.5 318.056C108.167 317.723 102 319.056 101 327.056L94.2163 385.056M147 320.556L160 321.541M94.2163 385.056L91 412.556C95.4 417.756 110.5 420.39 117.5 421.057C123 421.58 129.667 420.057 132.5 418.557C149.3 411.357 158.5 414.89 161 417.557C163.4 420.357 168 421.057 170 421.057H175.5C185.5 420.657 190.667 425.89 192 428.557M94.2163 385.056C89.6442 374.723 80.2 351.456 79 341.056C75.0655 341.857 70.1257 343.323 64.6193 345.557M362 249.057C355.6 238.257 347.333 223.89 344 218.057C335.6 204.457 333.5 192.39 333.5 188.057C333.1 169.657 323 138.057 318 124.557L307 85.5565C301.8 66.7565 292.5 50.0565 288.5 44.0565C252.5 -3.94347 218.5 -2.27683 206 4.5565C197.2 -1.0435 187.667 5.88983 184 10.0565L169 18.5565C141.8 34.1565 138.333 73.0565 140 90.5565L141 116.056L142 149.557C140.4 185.957 127.333 207.39 121 213.557C108.2 225.157 96 248.723 91.5 259.056C87.1 270.656 78 285.556 74 291.556C65.2 304.756 59 320.056 57 326.056C53.4 336.856 44.1666 347.223 40 351.056C12.8 374.656 2.99997 399.89 1.49997 409.556C9.66956 387.382 23.7667 371.482 38.2603 360.557M362 249.057H341.5C335.833 248.89 323.3 250.557 318.5 258.557C318.188 258.695 317.854 258.829 317.5 258.956M362 249.057C387.2 245.857 397.833 258.723 400 265.557M290.5 244.057C293.805 251.493 298.134 255.715 302.5 257.921M290.5 244.057L288 245.057C282 233.857 272.833 229.39 269 228.557C256.2 226.157 244.667 238.557 240.5 245.057C232.846 256.243 233.389 266.671 235.67 273.391M302.5 257.921L293.5 261.557L289.5 260.557C288.033 265.396 284.889 273.721 275.978 279.057M302.5 257.921C308.152 260.777 313.866 260.255 317.5 258.956M285 248.557C282.5 244.723 274.4 238.657 262 245.057C256.5 247.723 246.3 257.257 249.5 274.057C250.5 277.168 253.9 283.757 259.5 285.223M259.5 285.223C260.653 285.041 261.67 284.806 262.5 284.557L272 281.057C273.44 280.456 274.763 279.784 275.978 279.057M259.5 285.223C257.884 285.479 256.003 285.632 254 285.574M182.969 272.057C182.357 274.965 181.201 278.82 179.26 283.057M182.969 272.057C183.205 273.663 183.998 274.974 185.175 276.038M317.5 258.956C314.845 261.485 311.148 266.55 307.866 274.057M312.5 406.557L305.5 390.057L303 359.057L300.5 319.057C299.571 299.541 303.319 284.456 307.866 274.057M312.5 406.557L314 400.557C311.167 394.223 308.6 379.857 321 373.057L334.5 342.557C336.667 301.723 352.8 229.157 400 265.557M312.5 406.557C310.167 413.89 305.5 432.357 305.5 447.557C303.964 448.466 301.672 449.757 299 451.157M400 265.557C409.704 275.957 413.377 292.223 414 299.057M283.5 397.057L289 344.057C290.2 333.657 282.833 330.723 279 330.557L196.5 324.306M283.5 397.057L261 401.057C259.5 401.223 255.7 402.357 252.5 405.557L237 417.057L225.5 426.057C224.667 426.723 222.1 427.957 218.5 427.557L192 428.557M283.5 397.057C286 396.557 291.6 397.057 294 403.057C294.5 404.723 296.5 408.257 300.5 409.057C302 409.39 305 410.757 305 413.557C304.833 415.223 303.4 418.557 299 418.557C296.333 418.89 290.1 418.457 286.5 414.057C286.221 414.057 284.539 415.615 281.368 416.557M192 428.557C187 426.723 176.7 427.257 175.5 444.057C178.667 447.89 182.7 457.457 173.5 465.057C173.318 467.612 173.515 471.476 174.781 474.253M242.5 272.057C242.144 272.413 239.566 272.579 235.67 273.391M196.5 324.306L160 321.541M196.5 324.306C195.601 314.977 197.713 306.527 200.475 300.057M186.5 267.057C186.527 269.104 186.184 272.289 185.175 276.038M160 321.541C164.8 307.929 170.667 299.546 173 297.057C176.545 293.568 179.216 289.776 181.205 286.057M307.866 274.057C302.396 273.727 288.361 274.265 275.978 279.057M254 285.574C248.822 285.423 242.83 283.867 238.5 279.057C237.532 277.736 236.489 275.802 235.67 273.391M254 285.574L241.5 292.557C234.317 296.057 216.055 302.457 200.475 300.057M200.475 300.057C202.627 295.014 205.175 291.173 207 289.057C217.299 278.436 228.634 274.858 235.67 273.391M200.475 300.057C196.287 299.057 186.569 294.857 181.205 286.057M181.205 286.057L179.26 283.057M181.205 286.057C183.081 282.549 184.351 279.104 185.175 276.038M232 481.057C255.2 467.057 275 460.223 282 458.557C287.27 456.975 293.842 453.861 299 451.157M232 481.057C223.602 473.858 210.826 472.657 199.5 473.676M232 481.057C227.146 483.898 215.465 489.514 199.5 494.679M156.5 511.557C156.275 510.927 156.111 510.346 156 509.81M156.5 511.557L123.5 518.557C120.167 519.223 112.4 521.957 108 527.557C106.333 527.557 102.2 528.157 99 530.557L80 539.057C78.5237 539.647 75.5045 541.231 74 543.253M156.5 511.557C158.082 516.16 162.222 532.26 167.441 562.557M410.5 382.057L408.5 410.557L405 423.557L403.5 440.557C405.1 450.157 402.833 454.557 401.5 455.557C398.3 457.957 394.833 463.89 393.5 466.557C387.1 481.757 372.5 506.557 366 517.057C364.541 519.223 362.682 521.482 360.5 523.803M410.5 382.057C412.5 363.223 416 320.257 414 299.057M410.5 382.057C417.3 376.057 419.333 368.557 419.5 365.557L421.5 342.557C421.9 323.357 416.667 305.557 414 299.057M410.5 382.057C412.833 382.223 417.9 383.457 419.5 387.057C422.667 387.39 429.9 389.357 433.5 394.557L441 399.057C443 397.723 447.9 397.657 451.5 408.057C455 410.723 463 420.157 467 436.557C470.5 438.89 477.3 446.757 476.5 459.557C476 465.89 476.2 481.457 481 493.057V506.057C482.667 511.557 485.3 527.557 482.5 547.557C484.167 550.223 487 557.457 485 565.057L484 601.057L488.5 607.557L484 614.057L484.5 643.057C486 645.057 488.3 651.057 485.5 659.057C489 664.723 496 682.857 496 710.057C498.834 716.39 503.2 731.557 498 741.557V747.557H349M199.5 473.676C191.945 474.355 185.035 476.023 180.5 477.557C177.604 478.099 175.828 476.547 174.781 474.253M199.5 473.676C196.5 476.057 191 484.057 179 486.057C177.021 484.854 173.406 480.809 174.781 474.253M199.5 473.676C202 477.551 205.5 487.177 199.5 494.679M199.5 494.679C192.989 496.786 185.764 498.818 178 500.557L159 504.057C157.521 504.204 155.123 505.586 156 509.81M349 747.557C346.667 737.723 342.6 712.857 345 692.057L330.5 685.057L327.167 657.057M349 747.557H48C50 730.357 53.8333 720.057 55.5 717.057C53.5 711.457 56.3333 707.057 58 705.557C54.8 694.757 59.3333 688.723 62 687.057C60.8 680.657 65.1667 674.39 67.5 672.057L66.5 669.057M321.449 554.057C307.954 562.735 294.524 570.333 285.5 575.057C276.118 580.001 266.956 583.235 258.5 585.26M321.449 554.057C320.208 579.257 323.632 623.89 325.5 643.057L327.167 657.057M321.449 554.057C329.972 548.575 338.521 542.662 346 536.769M346 536.769C348 550.198 353.7 582.457 360.5 604.057L367.5 603.057C369.833 594.557 374.5 574.657 372.5 563.057C371.466 557.057 370.9 542.8 360.5 523.803M346 536.769C351.58 532.373 356.565 527.988 360.5 523.803M299 451.157C298.6 445.238 294.5 440.624 292.5 439.057C298.1 436.657 298.5 429.723 298 426.557C296.4 418.957 287.333 418.723 283 419.557C282.295 419.612 281.629 419.652 281 419.677M156 509.81C136.897 514.585 102.22 521.56 76 522.393M38.2603 360.557C21.6686 381.757 10.8402 434.39 7.5 458.057C5.5 473.257 9 480.057 11 481.557C19.8 486.757 24.6667 496.057 26 500.057C32 513.657 43.1667 518.39 48 519.057C53.4759 521.575 61.9753 522.54 72 522.471M38.2603 360.557C47.3449 353.709 56.5853 348.815 64.6193 345.557M38.2603 360.557C31.2686 380.557 45.1736 387.89 53 389.057C26.6 373.857 49.7462 353.723 64.6193 345.557M54 573.557C53.6 567.957 57.1667 563.89 59 562.557C58.6396 559.553 58.8114 557.075 59.2961 555.057M54 573.557C48.1667 582.723 38.5 606.457 46.5 628.057C48.3333 642.223 54.9 670.257 66.5 669.057M54 573.557C55.6 575.957 57.1711 574.557 57.7566 573.557M66.5 669.057C62.9 660.657 67.6667 648.557 70.5 643.557C71.3 629.557 75.5 618.61 77.5 614.887M167.441 562.557C168.269 567.362 169.124 572.525 170 578.057C170.333 579.89 172.4 583.257 178 582.057C183 580.557 198.1 579.357 218.5 586.557C225.33 588.378 240.278 589.624 258.5 585.26M167.441 562.557H146.5C142.667 562.223 134.4 563.857 132 573.057C130.5 580.223 125.2 596.257 116 603.057C113.833 606.89 111.1 614.557 117.5 614.557M117.5 614.557C118.167 616.39 118.3 620.357 113.5 621.557L107 624.557C104.897 625.345 100.886 625.761 98.5 622.761M117.5 614.557L164.5 618.557M97 603.557V619.557C97.3381 620.909 97.8607 621.958 98.5 622.761M98.5 622.761C95.5 626.693 88.1 631.957 82.5 621.557L82.2763 613.057M69 613.057L71.75 608.807M82.2763 613.057L82.2105 610.557M82.2763 613.057C81.2242 613.565 79.5383 614.253 77.5 614.887M67 586.057L62.7143 593.557M62.7143 593.557L57 603.557C52.2 613.157 56.3333 616.223 59 616.557H66C69.9594 616.804 74.1933 615.916 77.5 614.887M62.7143 593.557C60.1429 593.557 55 591.857 55 585.057C55.3522 582.38 56.2283 578.179 57.7566 573.557M68 555.057C63.15 560.137 59.8446 567.241 57.7566 573.557M327.167 657.057C314.944 645.223 283.8 619.157 257 609.557M257 609.557L258.5 585.26M257 609.557L256 617.057C255.5 620.89 251.8 628.257 241 627.057M241 627.057C230.2 625.857 185.5 620.89 164.5 618.557M241 627.057L164.5 618.557M82.2105 610.557L82 602.557C81.1667 599.89 78.5 596.557 74.5 604.557L71.75 608.807M82.2105 610.557L71.75 608.807M74 543.253C73.8059 543.514 73.6371 543.782 73.5 544.057L65 547.557C63.2509 548.14 60.425 550.354 59.2961 555.057M74 543.253L76 522.393M76 522.393C74.6429 522.436 73.3085 522.462 72 522.471M72 522.471C71.5 527.333 69.1 538.457 63.5 544.057C62.2159 545.39 59.5775 549.457 59.2961 555.057M190.5 105.557C193.167 108.723 195.3 115.657 192.5 132.057C191.667 135.89 191 144.257 195 147.057C196.5 148.057 200.4 149.657 204 148.057M212.5 127.057C216.833 128.39 223.9 132.857 217.5 140.057M281.368 416.557C278.859 417.302 275.417 417.661 271 416.557C270.771 417.798 272.536 420.021 281 419.677M281.368 416.557L281 419.677M215.5 140.057C212.5 140.223 206.4 141.357 206 144.557M238 151.557C236.667 152.723 231.9 155.457 223.5 157.057C221.833 157.223 217.8 158.157 215 160.557C213.833 161.557 210.3 163.357 205.5 162.557C204.167 162.39 200.8 162.557 198 164.557C197 165.223 194.5 166.157 192.5 164.557M205.5 94.5565C214.333 89.183 235.4 80.2602 249 87.5565C246.5 83.8898 238.3 77.4565 225.5 81.0565L206 88.5565C202.4 89.9411 202.5 92.8001 203 94.0565L205.5 94.5565ZM207 260.057C207.667 261.557 209.2 263.557 210 259.557C210.5 255.557 210.6 246.157 207 240.557C206.5 239.89 205.4 238.957 205 240.557C204.333 244.057 203.8 252.857 207 260.057ZM338 587.557C338.167 610.057 340.5 659.757 348.5 678.557C350.667 674.723 354.1 663.857 350.5 651.057C347.5 639.057 341.8 612.057 343 600.057L338 587.557Z" stroke="#131313" stroke-width="2"/>
</svg>
