<svg width="102" height="102" viewBox="0 0 102 102" fill="none" xmlns="http://www.w3.org/2000/svg">
<path d="M38.5998 60.4934C39.6121 59.3765 39.7133 59.1057 39.6796 57.1765C39.6796 54.8072 38.5324 51.2533 37.6213 50.6779C36.9127 50.2379 35.9342 51.0841 33.5723 54.2995C31.6152 56.9396 31.1766 58.6319 32.1551 60.1211C33.606 62.3212 36.7778 62.4904 38.5998 60.4934Z" fill="white"/>
<path fill-rule="evenodd" clip-rule="evenodd" d="M39.6796 57.1765C39.7133 59.1057 39.6121 59.3765 38.5998 60.4934C36.7778 62.4904 33.606 62.3212 32.1551 60.1211C31.1766 58.6319 31.6152 56.9396 33.5723 54.2995C35.9342 51.0841 36.9127 50.2379 37.6213 50.6779C38.5324 51.2533 39.6796 54.8072 39.6796 57.1765Z" fill="#131313"/>
<path fill-rule="evenodd" clip-rule="evenodd" d="M39.6796 57.1765C39.7133 59.1057 39.6121 59.3765 38.5998 60.4934C36.7778 62.4904 33.606 62.3212 32.1551 60.1211C31.1766 58.6319 31.6152 56.9396 33.5723 54.2995C35.9342 51.0841 36.9127 50.2379 37.6213 50.6779C38.5324 51.2533 39.6796 54.8072 39.6796 57.1765Z" fill="#131313"/>
<path fill-rule="evenodd" clip-rule="evenodd" d="M39.6796 57.1765C39.7133 59.1057 39.6121 59.3765 38.5998 60.4934C36.7778 62.4904 33.606 62.3212 32.1551 60.1211C31.1766 58.6319 31.6152 56.9396 33.5723 54.2995C35.9342 51.0841 36.9127 50.2379 37.6213 50.6779C38.5324 51.2533 39.6796 54.8072 39.6796 57.1765Z" fill="white"/>
<path fill-rule="evenodd" clip-rule="evenodd" d="M0 51V0H51H102V51V102H51H0V51ZM3.80141 52.5084C3.7857 52.0076 3.77778 51.5047 3.77778 51L3.77792 50.8846C3.77907 50.4021 3.78746 49.9212 3.80299 49.4421L3.82646 3.77778H51H98.2222V51V78.0249V98.2222H95.068H89.7131H81.2039H79.4717H71.1444H51H42.7305H37.3417H24.2621H12.6082H3.77792L3.7841 86.183L3.79613 62.795L3.80141 52.5084Z" fill="#131313"/>
<path fill-rule="evenodd" clip-rule="evenodd" d="M60.5323 87.4353C62.2869 88.7215 62.7593 89.3307 64.5476 92.7492C65.1122 93.8677 65.7181 94.8323 66.3753 95.6627C66.7574 96.2469 68.2463 97.5767 71.1444 98.2222H79.4717C73.7286 97.1806 69.9718 95.472 68.8112 94.7479C66.9611 92.2759 64.5196 89.2184 62.8268 87.3338C61.4433 85.8107 60.2961 84.423 60.2961 84.2537C60.2961 83.7799 61.6458 84.6599 63.2991 86.183C66.1299 88.7845 69.4497 91.2745 72.3799 93.1164L81.2039 98.2222H89.7131C81.0718 95.9922 77.9295 91.9002 77.4385 90.133C77.0689 88.8659 76.5521 87.3143 76.2899 86.6568C75.6488 85.1676 73.4556 82.9676 71.5997 81.986L70.25 81.2414L71.7347 81.4445C73.8942 81.7152 79.3267 83.8476 82.2285 85.5061C82.4175 85.617 82.6298 85.7343 82.86 85.8555C84.1748 86.6505 90.1165 89.493 95.068 98.2222H98.2222V78.0249C95.2 79.0467 92.1656 77.1464 91.0262 76.0686C88.1268 73.3379 85.0339 70.3155 79.8666 65.1981C71.9034 57.3119 71.5322 56.9057 70.1151 53.9949C68.1918 50.1025 67.1458 48.7148 54.8299 33.8562C46.6305 24.0069 45.8207 23.4992 42.6152 26.2407C38.8698 29.49 22.0324 41.5732 17.241 44.484C12.036 47.6457 5.93059 50.2086 3.80225 50.877L3.80141 52.5084C3.80828 52.7272 3.81663 52.9456 3.82646 53.1636C4.35048 53.1012 4.96818 52.9987 5.36376 52.878C10.5938 51.321 28.5109 39.847 37.6888 32.1639C39.7471 30.4715 41.0968 29.49 41.4342 29.49C41.5692 29.49 41.8391 29.93 42.0416 30.4377C42.3452 31.1823 42.3452 32.0623 41.9741 34.4316C41.7041 36.0901 41.5354 37.4778 41.5692 37.5455C41.7716 37.7824 43.6949 32.2993 44.2685 29.8962C44.5722 28.5423 45.0109 27.3577 45.1796 27.2561C45.652 26.9515 46.8667 28.2038 50.4434 32.7054C53.9526 37.1055 61.5108 46.1764 64.109 49.0533C66.2347 51.4226 70.9924 61.4411 70.6887 62.9642C70.5537 63.675 63.2317 56.3642 56.3483 48.6133C53.3789 45.2625 50.2409 42.0132 49.3636 41.404C47.744 40.2532 47.3728 40.2871 48.4188 41.4717C49.2286 42.3517 51.2194 45.8717 54.6274 52.2349C57.2255 57.0749 59.3851 62.0842 60.4311 65.6381L60.9372 67.432L59.6887 66.6874C55.201 63.9458 49.3299 59.0042 42.7501 52.3703C40.0508 49.6625 37.6888 47.4287 37.4526 47.4287C36.6765 47.4287 34.5508 49.6287 31.9526 53.081C29.4894 56.3642 22.1336 64.7581 21.8975 64.555C21.8637 64.4873 22.1336 63.7089 22.5386 62.795C22.9097 61.8811 23.8545 59.478 24.5968 57.4134C26.5876 51.9641 27.5324 50.2718 32.3238 43.4348C36.3391 37.7147 38.971 33.3485 38.5998 33.01C38.4986 32.9085 37.5876 33.7885 36.5416 34.9731C33.606 38.2563 28.7809 42.5548 20.649 49.0533C16.5662 52.3364 11.7748 56.2288 10.0202 57.718C8.26559 59.2411 6.37603 60.7981 5.83615 61.2042L5.03381 61.8653L3.79613 62.795L3.7841 86.183C7.99974 86.7245 16.1765 86.5666 19.7379 86.4199L19.765 86.4171L24.9005 85.8783C30.8054 85.2353 34.7195 84.4568 38.3299 83.1706C40.7256 82.3245 40.7931 82.3245 40.1857 83.0014C39.1735 84.1183 34.5508 87.063 30.1643 89.3984L26.4579 91.3518L12.6082 98.2222H24.2621C24.4938 96.6372 25.7067 93.3014 28.7048 92.6382C29.222 92.6035 29.9858 92.4183 31.4128 92.0723C38.971 90.2107 45.0784 87.6045 48.6213 84.6937C52.7716 81.2752 54.4924 80.8352 57.5967 82.2906L59.2501 83.0691L58.2716 84.186C56.7869 85.9122 55.6397 88.0107 54.5937 91.1246C54.3428 91.8482 54.0919 92.579 53.8816 93.1915C53.6394 93.8969 53.4512 94.4453 53.3789 94.6446C52.9403 95.7954 55.8759 91.7338 57.4617 88.9584L58.9801 86.3184L60.5323 87.4353ZM39.6796 57.1765C39.7133 59.1057 39.6121 59.3765 38.5998 60.4934C36.7778 62.4904 33.606 62.3212 32.1551 60.1211C31.1766 58.6319 31.6152 56.9396 33.5723 54.2995C35.9342 51.0841 36.9127 50.2379 37.6213 50.6779C38.5324 51.2533 39.6796 54.8072 39.6796 57.1765Z" fill="#131313"/>
<path d="M17.241 44.484C22.0324 41.5732 38.8698 29.49 42.6152 26.2407C45.8207 23.4992 46.6305 24.0069 54.8299 33.8562C67.1458 48.7148 68.1918 50.1025 70.1151 53.9949C71.5322 56.9057 71.9034 57.3119 79.8666 65.1981C85.0339 70.3155 88.1268 73.3379 91.0262 76.0686C92.1656 77.1464 95.2 79.0467 98.2222 78.0249V51V3.77778H51H3.82646L3.80299 49.4421L3.80225 50.877C5.93059 50.2086 12.036 47.6457 17.241 44.484Z" fill="white"/>
<path d="M64.5476 92.7492C62.7593 89.3307 62.2869 88.7215 60.5323 87.4353L58.9801 86.3184L57.4617 88.9584C55.8759 91.7338 52.9403 95.7954 53.3789 94.6446C53.4512 94.4453 53.6394 93.8969 53.8816 93.1915C54.0919 92.579 54.3428 91.8482 54.5937 91.1246C55.6397 88.0107 56.7869 85.9122 58.2716 84.186L59.2501 83.0691L57.5967 82.2906C54.4924 80.8352 52.7716 81.2752 48.6213 84.6937C45.0784 87.6045 38.971 90.2107 31.4128 92.0723C29.9858 92.4183 29.222 92.6035 28.7048 92.6382C25.7067 93.3014 24.4938 96.6372 24.2621 98.2222H37.3417L40.3093 97.007C40.9112 96.7352 41.6032 96.4479 42.0431 96.2653C42.1328 96.2281 42.212 96.1952 42.2778 96.1677C43.0539 95.8631 47.5753 92.8846 50.7133 90.6169L52.7716 89.1615L51.3207 91.5646C49.4986 94.6108 48.9588 95.0846 45.5845 96.8108C44.8908 97.1587 44.2946 97.4446 43.7727 97.6726L42.7305 98.2222H51H71.1444C68.2463 97.5767 66.7574 96.2469 66.3753 95.6627C65.7181 94.8323 65.1122 93.8677 64.5476 92.7492Z" fill="white"/>
<path d="M30.1643 89.3984C34.5508 87.063 39.1735 84.1183 40.1857 83.0014C40.7931 82.3245 40.7256 82.3245 38.3299 83.1706C34.7195 84.4568 30.8054 85.2353 24.9005 85.8783L19.765 86.4171L19.7379 86.4199C16.1765 86.5666 7.99974 86.7245 3.7841 86.183L3.77792 98.2222H12.6082L26.4579 91.3518L30.1643 89.3984Z" fill="white"/>
<path d="M50.7133 90.6169C47.5753 92.8846 43.0539 95.8631 42.2778 96.1677C42.212 96.1952 42.1328 96.2281 42.0431 96.2653C41.6032 96.4479 40.9112 96.7352 40.3093 97.007L37.3417 98.2222H42.7305L43.7727 97.6726C44.2946 97.4446 44.8908 97.1587 45.5845 96.8108C48.9588 95.0846 49.4986 94.6108 51.3207 91.5646L52.7716 89.1615L50.7133 90.6169Z" fill="#131313"/>
<path d="M82.2285 85.5061C79.3267 83.8476 73.8942 81.7152 71.7347 81.4445L70.25 81.2414L71.5997 81.986C73.4556 82.9676 75.6488 85.1676 76.2899 86.6568C76.5521 87.3143 77.0689 88.8659 77.4385 90.133C77.9295 91.9002 81.0718 95.9922 89.7131 98.2222H95.068C90.1165 89.493 84.1748 86.6505 82.86 85.8555C82.6298 85.7343 82.4175 85.617 82.2285 85.5061Z" fill="white"/>
<path d="M63.2991 86.183C61.6458 84.6599 60.2961 83.7799 60.2961 84.2537C60.2961 84.423 61.4433 85.8107 62.8268 87.3338C64.5196 89.2184 66.9611 92.2759 68.8112 94.7479C69.9718 95.472 73.7286 97.1806 79.4717 98.2222H81.2039L72.3799 93.1164C69.4497 91.2745 66.1299 88.7845 63.2991 86.183Z" fill="white"/>
<path d="M5.83615 61.2042C6.37603 60.7981 8.26559 59.2411 10.0202 57.718C11.7748 56.2288 16.5662 52.3364 20.649 49.0533C28.7809 42.5548 33.606 38.2563 36.5416 34.9731C37.5876 33.7885 38.4986 32.9085 38.5998 33.01C38.971 33.3485 36.3391 37.7147 32.3238 43.4348C27.5324 50.2718 26.5876 51.9641 24.5968 57.4134C23.8545 59.478 22.9097 61.8811 22.5386 62.795C22.1336 63.7089 21.8637 64.4873 21.8975 64.555C22.1336 64.7581 29.4894 56.3642 31.9526 53.081C34.5508 49.6287 36.6765 47.4287 37.4526 47.4287C37.6888 47.4287 40.0508 49.6625 42.7501 52.3703C49.3299 59.0042 55.201 63.9458 59.6887 66.6874L60.9372 67.432L60.4311 65.6381C59.3851 62.0842 57.2255 57.0749 54.6274 52.2349C51.2194 45.8717 49.2286 42.3517 48.4188 41.4717C47.3728 40.2871 47.744 40.2532 49.3636 41.404C50.2409 42.0132 53.3789 45.2625 56.3483 48.6133C63.2317 56.3642 70.5537 63.675 70.6887 62.9642C70.9924 61.4411 66.2347 51.4226 64.109 49.0533C61.5108 46.1764 53.9526 37.1055 50.4434 32.7054C46.8667 28.2038 45.652 26.9515 45.1796 27.2561C45.0109 27.3577 44.5722 28.5423 44.2685 29.8962C43.6949 32.2993 41.7716 37.7824 41.5692 37.5455C41.5354 37.4778 41.7041 36.0901 41.9741 34.4316C42.3452 32.0623 42.3452 31.1823 42.0416 30.4377C41.8391 29.93 41.5692 29.49 41.4342 29.49C41.0968 29.49 39.7471 30.4715 37.6888 32.1639C28.5109 39.847 10.5938 51.321 5.36376 52.878C4.96818 52.9987 4.35048 53.1012 3.82646 53.1636C3.81663 52.9456 3.80828 52.7272 3.80141 52.5084L3.79613 62.795L5.03381 61.8653L5.83615 61.2042Z" fill="white"/>
</svg>
